<svg xmlns="http://www.w3.org/2000/svg" viewBox="0 0 291.30651 283.88889"><defs><style>.a{fill:none;stroke:#231f20;stroke-linecap:round;stroke-linejoin:round;stroke-width:15px;}</style></defs><title>Asset 9</title><path class="a" d="M236.51916,97.4387V276.38889H54.78736V97.4387m181.7318,50.069h47.28735V79.03725A31.88982,31.88982,0,0,0,266.30141,50.576L181.07241,7.5,145.65326,42.73372,110.2341,7.5,25.0051,50.576A31.88982,31.88982,0,0,0,7.5,79.03725v68.47041H54.78736m90.8659-45.14655A16.52076,16.52076,0,1,0,162.174,118.88187,16.52076,16.52076,0,0,0,145.65326,102.36111Zm0,33.04151a23.06258,23.06258,0,1,0,23.06257,23.06258A23.06258,23.06258,0,0,0,145.65326,135.40262ZM54.78736,244.30556h181.7318M7.5,122.22222H54.78736m181.7318,0h47.28735"/></svg>