<?xml version="1.0" encoding="utf-8"?>
<!-- Generator: Adobe Illustrator 16.0.0, SVG Export Plug-In . SVG Version: 6.00 Build 0)  -->
<!DOCTYPE svg PUBLIC "-//W3C//DTD SVG 1.0//EN" "http://www.w3.org/TR/2001/REC-SVG-20010904/DTD/svg10.dtd">
<svg version="1.0" id="Layer_1" xmlns="http://www.w3.org/2000/svg" xmlns:xlink="http://www.w3.org/1999/xlink" x="0px" y="0px"
	 width="100px" height="100px" viewBox="0 0 100 100" enable-background="new 0 0 100 100" xml:space="preserve">
<rect x="21.668" y="56.666" width="8.333" height="8.334"/>
<polygon points="60.001,56.943 66.729,26.667 73.396,26.667 76.176,39.167 90,39.167 90,44.167 72.166,44.167 70.063,34.713 
	63.334,65 56.667,65 48.842,29.735 42.488,58.334 35.821,58.334 32.673,44.167 21.668,44.167 21.668,39.167 36.684,39.167 
	39.155,50.287 45.509,21.667 52.169,21.667 "/>
<rect x="21.668" y="21.667" width="16.667" height="4.999"/>
<rect x="21.668" y="30" width="8.333" height="5"/>
<path d="M63.334,21.667v-5c0-3.665-3.001-6.667-6.667-6.667H16.668C13.003,10,10,13.002,10,16.667v66.667
	C10,86.998,13.003,90,16.668,90h39.999c3.666,0,6.667-3.002,6.667-6.666V70H16.668V16.667h39.999v5H63.334z M34.167,76.668h5.001
	c1.373,0,2.5,1.125,2.5,2.498c0,1.375-1.127,2.5-2.5,2.5h-5.001c-1.373,0-2.5-1.125-2.5-2.5
	C31.667,77.793,32.794,76.668,34.167,76.668z"/>
</svg>
