<?xml version="1.0" encoding="utf-8"?>
<!-- Generator: Adobe Illustrator 16.0.0, SVG Export Plug-In . SVG Version: 6.00 Build 0)  -->
<!DOCTYPE svg PUBLIC "-//W3C//DTD SVG 1.0//EN" "http://www.w3.org/TR/2001/REC-SVG-20010904/DTD/svg10.dtd">
<svg version="1.0" id="Layer_1" xmlns="http://www.w3.org/2000/svg" xmlns:xlink="http://www.w3.org/1999/xlink" x="0px" y="0px"
	 width="100px" height="100px" viewBox="0 0 100 100" enable-background="new 0 0 100 100" xml:space="preserve">
<polygon points="61.667,83.333 60,90 40,90 38.333,83.333 "/>
<path d="M50,10c-16.569,0-30,13.432-30,30c0,8.285,3.356,15.784,8.789,21.211c2.81,2.806,4.544,6.683,4.544,10.964V75
	c0,1.843,1.494,3.333,3.334,3.333h26.666c1.843,0,3.334-1.497,3.334-3.336v-2.822c0-4.281,1.731-8.158,4.544-10.964
	C76.641,55.784,80,48.285,80,40C80,23.432,66.569,10,50,10z M49.707,51.478c0-3.96,1.536-7.674,4.336-10.467
	c1.641-1.636,3.584-2.843,5.7-3.564c1.224,7.881-2.084,15.871-8.522,20.574C50.228,56.013,49.707,53.786,49.707,51.478z
	 M66.497,56.494c-4.068,4.063-6.363,9.434-6.49,15.173H52.5v-6.576C64.606,58.196,69.993,43.209,64.524,30
	c-4.59-0.014-9.16,1.479-12.994,4.404c-2.937-4.035-6.96-7.355-11.904-9.404c-3.898,3.877-6.287,9.248-6.293,15.189
	c-0.006,5.934,2.396,11.302,6.285,15.185c1.412,1.413,3.025,2.627,4.789,3.607c0.729,1.963,1.762,3.841,3.093,5.566v7.119h-7.505
	c-0.129-5.736-2.424-11.107-6.494-15.173C29.093,52.093,26.667,46.235,26.667,40c0-12.866,10.469-23.334,23.333-23.334
	c12.868,0,23.333,10.468,23.333,23.334C73.333,46.232,70.905,52.09,66.497,56.494z M46.813,39.341
	c-2.067,3.005-3.289,6.413-3.65,9.897c-2.02-2.586-3.166-5.711-3.163-9.043c0.003-2.318,0.522-4.545,1.509-6.549
	C43.653,35.215,45.417,37.17,46.813,39.341z"/>
</svg>
