<?xml version="1.0" encoding="utf-8"?>
<!-- Generator: Adobe Illustrator 16.0.0, SVG Export Plug-In . SVG Version: 6.00 Build 0)  -->
<!DOCTYPE svg PUBLIC "-//W3C//DTD SVG 1.0//EN" "http://www.w3.org/TR/2001/REC-SVG-20010904/DTD/svg10.dtd">
<svg version="1.0" id="Layer_1" xmlns="http://www.w3.org/2000/svg" xmlns:xlink="http://www.w3.org/1999/xlink" x="0px" y="0px"
	 width="100px" height="100px" viewBox="0 0 100 100" enable-background="new 0 0 100 100" xml:space="preserve">
<path d="M70,56.668V50c0-15.636-6.999-29.779-18.333-40h-3.333C36.998,20.221,30,34.364,30,50v6.668
	c0,1.832,1.061,4.395,2.357,5.689l4.309,4.311H30v5l6.666,1.666L40,86.668h3.334L45,90h10l1.667-3.332H60l3.333-13.334L70,71.668v-5
	h-6.667l4.311-4.311C68.938,61.063,70,58.5,70,56.668z M54.792,80h-9.587l-1.666-6.666h12.919L54.792,80z M62.93,57.645
	l-9.023,9.023H52.5V54.857l5.833-5.834l-2.356-2.356L50,50.287l-5.977-3.62l-2.357,2.356l5.834,5.834v11.811h-1.4l-8.945-8.934
	c-0.188-0.24-0.455-0.889-0.488-1.066V50c0-11.983,4.707-23.333,13.334-32.335C58.626,26.667,63.333,38.017,63.333,50l0.007,6.543
	C63.301,56.846,63.034,57.494,62.93,57.645z"/>
<polygon points="90,50 75,49.167 75,45.834 90,45 "/>
<polygon points="10,45 25,45.834 25,49.167 10,50 "/>
<polygon points="76.052,59.883 74.642,62.904 87.888,70 90,65.469 "/>
<polygon points="23.949,59.883 10,65.469 12.113,70 25.357,62.904 "/>
<polygon points="12.113,25 10,29.531 23.949,35.117 25.357,32.097 "/>
<polygon points="87.888,25 74.642,32.097 76.052,35.117 90,29.531 "/>
</svg>
