<?xml version="1.0" encoding="utf-8"?>
<!-- Generator: Adobe Illustrator 16.0.0, SVG Export Plug-In . SVG Version: 6.00 Build 0)  -->
<!DOCTYPE svg PUBLIC "-//W3C//DTD SVG 1.0//EN" "http://www.w3.org/TR/2001/REC-SVG-20010904/DTD/svg10.dtd">
<svg version="1.0" id="Layer_1" xmlns="http://www.w3.org/2000/svg" xmlns:xlink="http://www.w3.org/1999/xlink" x="0px" y="0px"
	 width="100px" height="100px" viewBox="0 0 100 100" enable-background="new 0 0 100 100" xml:space="preserve">
<path fill="none" stroke="#000000" stroke-width="2" stroke-linecap="round" stroke-linejoin="round" stroke-miterlimit="10" d="
	M50.001,49.996c-4.699,0-9.103-1.233-12.93-3.38l1.769-3.066c8.01-13.877,23.244-21.03,38.235-19.479
	c4.513,4.711,7.554,10.306,9.133,16.213C73.528,32.968,57.32,37.313,50.001,49.996z"/>
<path fill="none" stroke="#000000" stroke-width="2" stroke-linecap="round" stroke-linejoin="round" stroke-miterlimit="10" d="
	M27.489,37.432c-2.519-4.057-3.999-8.828-3.999-13.956c9.271-9.272,22.187-12.666,34.132-10.195
	c-7.984,2.443-15.451,6.8-21.645,12.996c-3.217,3.218-6.01,6.86-8.299,10.828L27.489,37.432z"/>
<path fill="none" stroke="#000000" stroke-width="2" stroke-linecap="round" stroke-linejoin="round" stroke-miterlimit="10" d="
	M37.071,46.616c-3.925-2.198-7.214-5.37-9.582-9.184l0.189-0.327c2.289-3.967,5.082-7.609,8.299-10.828
	c6.193-6.196,13.66-10.553,21.645-12.996c6.922,1.43,13.517,4.823,18.887,10.197c0.196,0.194,0.379,0.397,0.566,0.594
	C62.084,22.52,46.85,29.673,38.84,43.55L37.071,46.616z"/>
<path fill="none" stroke="#000000" stroke-width="2" stroke-linecap="round" stroke-linejoin="round" stroke-miterlimit="10" d="
	M49.996,49.993c2.351,4.071,3.483,8.505,3.541,12.892H50c-16.022,0-29.832-9.622-35.983-23.387
	c1.824-6.264,5.145-11.696,9.471-16.015C23.492,38.123,35.36,49.993,49.996,49.993z"/>
<path fill="none" stroke="#000000" stroke-width="2" stroke-linecap="round" stroke-linejoin="round" stroke-miterlimit="10" d="
	M50.377,75.779c-2.252,4.21-5.644,7.879-10.082,10.44c-12.663-3.394-22.061-12.888-25.896-24.471
	c6.11,5.694,13.615,9.985,22.076,12.255c4.394,1.177,8.943,1.774,13.522,1.775H50.377z"/>
<path fill="none" stroke="#000000" stroke-width="2" stroke-linecap="round" stroke-linejoin="round" stroke-miterlimit="10" d="
	M53.537,62.885c0.059,4.498-1.044,8.936-3.16,12.895h-0.379c-4.579-0.001-9.129-0.599-13.522-1.775
	c-8.461-2.27-15.966-6.561-22.076-12.255c-2.222-6.712-2.582-14.124-0.615-21.462c0.07-0.267,0.157-0.527,0.232-0.789
	C20.168,53.263,33.978,62.885,50,62.885H53.537z"/>
<path fill="none" stroke="#000000" stroke-width="2" stroke-linecap="round" stroke-linejoin="round" stroke-miterlimit="10" d="
	M50.001,50c2.349-4.073,5.622-7.273,9.392-9.517l1.77,3.067c8.009,13.88,6.583,30.657-2.257,42.867
	c-6.337,1.552-12.697,1.392-18.6-0.195C52.979,78.894,57.32,62.682,50.001,50z"/>
<path fill="none" stroke="#000000" stroke-width="2" stroke-linecap="round" stroke-linejoin="round" stroke-miterlimit="10" d="
	M72.136,36.775c4.77-0.153,9.64,0.951,14.079,3.515c3.393,12.666-0.126,25.553-8.238,34.671c1.876-8.143,1.837-16.791-0.429-25.255
	c-1.177-4.397-2.936-8.635-5.224-12.603L72.136,36.775z"/>
<path fill="none" stroke="#000000" stroke-width="2" stroke-linecap="round" stroke-linejoin="round" stroke-miterlimit="10" d="
	M59.393,40.483c3.866-2.298,8.259-3.563,12.743-3.708l0.188,0.329c2.288,3.967,4.047,8.206,5.224,12.603
	c2.266,8.464,2.305,17.112,0.429,25.255c-4.698,5.28-10.938,9.295-18.272,11.264c-0.266,0.072-0.534,0.125-0.799,0.191
	c8.84-12.21,10.266-28.987,2.257-42.867L59.393,40.483z"/>
</svg>
