<?xml version="1.0" encoding="utf-8"?>
<!-- Generator: Adobe Illustrator 24.1.0, SVG Export Plug-In . SVG Version: 6.00 Build 0)  -->
<svg version="1.1" xmlns="http://www.w3.org/2000/svg" xmlns:xlink="http://www.w3.org/1999/xlink" x="0px" y="0px"
	 viewBox="0 0 24 24" style="enable-background:new 0 0 24 24;" xml:space="preserve">
<style type="text/css">
	.st0{fill:none;}
</style>
<g id="Golfing">
</g>
<g id="Skateboarding">
</g>
<g id="Windsurfing">
</g>
<g id="Swimming_02">
</g>
<g id="Kayaking">
</g>
<g id="Roller_Skate">
</g>
<g id="Ice_Skate">
</g>
<g id="Jet_Ski">
</g>
<g id="Sports_Drinks">
</g>
<g id="Surfing">
</g>
<g id="Cycling">
</g>
<g id="Golf_Cart_Bag">
</g>
<g id="Motor_Sports_Flag">
</g>
<g id="Torch">
</g>
<g id="Motorcycle_Helmet">
</g>
<g id="Swimming_01">
</g>
<g id="Bowling_Pins">
</g>
<g id="Whistle">
</g>
<g id="Skateboard">
</g>
<g id="Football_Helmet">
</g>
<g id="Baseball_Ball">
</g>
<g id="Football_Ball">
</g>
<g id="Golf">
</g>
<g id="Hockey_Sticks">
</g>
<g id="Volleyball_Ball">
	<path d="M20.65,13.06c0.04-0.35,0.07-0.7,0.07-1.06c0-4.81-3.91-8.72-8.72-8.72c-1.38,0-2.69,0.33-3.85,0.9L8.12,4.16
		C8.11,4.18,8.09,4.2,8.08,4.22C5.24,5.65,3.28,8.6,3.28,12c0,2.43,1,4.63,2.61,6.21l0,0.01c0,0,0.01,0,0.01,0
		c1.57,1.54,3.73,2.5,6.1,2.5C16.45,20.72,20.13,17.37,20.65,13.06L20.65,13.06C20.65,13.06,20.65,13.06,20.65,13.06z M20.16,12
		c0,0.01,0,0.03,0,0.04c-1.54-2.7-4.4-4.4-7.57-4.4c-0.47,0-0.93,0.04-1.39,0.11c0.02-1.35,0.37-2.7,1.05-3.91
		C16.63,3.98,20.16,7.58,20.16,12z M12.17,11.73c-0.57-1.06-0.9-2.23-0.96-3.41c0.45-0.08,0.92-0.12,1.38-0.12
		c3.28,0,6.2,1.93,7.49,4.93c-0.19,1.35-0.71,2.6-1.48,3.66c-0.14-0.32-0.3-0.64-0.48-0.94C16.82,13.68,14.65,12.18,12.17,11.73z
		 M11.99,12.01L11.99,12.01L11.99,12.01L11.99,12.01z M8.38,13.72c-0.87-1.33-1.33-2.87-1.33-4.47c0-1.65,0.49-3.24,1.42-4.6
		c0.96-0.46,2.02-0.74,3.14-0.8c-1.3,2.53-1.29,5.56,0.04,8.08c-0.39,0.35-0.82,0.67-1.28,0.94C9.73,13.25,9.06,13.53,8.38,13.72z
		 M7.46,5.23c-0.64,1.24-0.98,2.6-0.98,4.02c0,1.64,0.45,3.23,1.32,4.61c-1.24,0.25-2.53,0.21-3.77-0.13
		C3.91,13.17,3.84,12.59,3.84,12C3.84,9.18,5.28,6.69,7.46,5.23z M4.19,14.35c0.66,0.15,1.32,0.23,1.99,0.23
		c1.56,0,3.1-0.41,4.46-1.22c0.52-0.31,1-0.67,1.44-1.07c1.21,0.22,2.34,0.71,3.31,1.41c-0.59,1.09-1.43,2.04-2.44,2.76
		c-1.39,0.99-3.02,1.51-4.73,1.51c-0.69,0-1.37-0.09-2.03-0.26C5.27,16.78,4.58,15.63,4.19,14.35z M12,20.16
		c-1.87,0-3.6-0.64-4.98-1.71c0.4,0.05,0.8,0.08,1.2,0.08c1.82,0,3.57-0.56,5.05-1.61c1.06-0.75,1.94-1.74,2.57-2.87
		c0.7,0.59,1.31,1.29,1.79,2.1c0.22,0.37,0.41,0.76,0.57,1.15C16.7,19.05,14.48,20.16,12,20.16z"/>
	<rect class="st0" width="24" height="24"/>
</g>
<g id="Competition_Podium_01_1_">
</g>
<g id="Competition_Podium_01">
</g>
<g id="Trophy_02">
</g>
<g id="Goal">
</g>
<g id="Medal">
</g>
<g id="Kettlebell">
</g>
<g id="Ping_Pong">
</g>
<g id="Chess">
</g>
<g id="Stopwatch">
</g>
<g id="Batting_Helmet">
</g>
<g id="Basketball_Ball">
</g>
<g id="Archery_Bow">
</g>
<g id="Bowling_Ball">
</g>
<g id="Soccer_Ball">
</g>
<g id="Tenis_Ball">
</g>
<g id="Dumbbell_02">
</g>
<g id="Basketball_Field">
</g>
<g id="Trophy_01">
</g>
<g id="_x38__Ball">
</g>
<g id="Dumbbell_01">
</g>
<g id="Soccer_Field">
</g>
<g id="Shuttlecock">
</g>
<g id="Tenis_Racket">
</g>
<g id="Fencing">
</g>
<g id="Baseball_Bat">
</g>
</svg>
