<?xml version="1.0" encoding="utf-8"?>
<!-- Generator: Adobe Illustrator 16.0.0, SVG Export Plug-In . SVG Version: 6.00 Build 0)  -->
<!DOCTYPE svg PUBLIC "-//W3C//DTD SVG 1.0//EN" "http://www.w3.org/TR/2001/REC-SVG-20010904/DTD/svg10.dtd">
<svg version="1.0" id="Layer_1" xmlns="http://www.w3.org/2000/svg" xmlns:xlink="http://www.w3.org/1999/xlink" x="0px" y="0px"
	 width="100px" height="100px" viewBox="0 0 100 100" enable-background="new 0 0 100 100" xml:space="preserve">
<path d="M86.667,53.333v-6.667h-6.836C79.668,45,79.343,43.385,78.942,41.8l6.451-2.347l-2.278-6.266l-6.455,2.35
	c-1.68-3.486-3.929-6.641-6.66-9.32V10h-6.667v11.166c-4.908-2.845-10.586-4.499-16.667-4.499c-6.079,0-11.759,1.654-16.666,4.499
	V10h-6.667v16.217c-6.165,6.048-10,14.463-10,23.783c0,9.319,3.835,17.734,10,23.786V90H30V78.838
	c4.907,2.842,10.587,4.495,16.666,4.495c6.081,0,11.759-1.653,16.667-4.495V90H70V73.786c2.731-2.683,4.98-5.837,6.663-9.323
	l6.452,2.351l2.278-6.267L78.942,58.2c0.4-1.586,0.726-3.2,0.889-4.867H86.667z M46.666,76.667C31.937,76.667,20,64.727,20,50
	s11.937-26.667,26.666-26.667c14.728,0,26.667,11.94,26.667,26.667S61.394,76.667,46.666,76.667z"/>
<polygon points="60.218,32.91 45.631,47.5 33.333,47.5 33.333,52.5 47.701,52.5 63.757,36.449 "/>
<circle cx="25.833" cy="50" r="2.5"/>
<circle cx="67.5" cy="50" r="2.5"/>
<circle cx="46.666" cy="70.833" r="2.5"/>
<circle cx="46.666" cy="29.167" r="2.5"/>
<path d="M59.632,62.962c0.977-0.977,2.559-0.977,3.535,0s0.977,2.563,0,3.535c-0.977,0.977-2.559,0.977-3.535,0
	C58.655,65.524,58.655,63.938,59.632,62.962z"/>
<path d="M30.169,33.5c0.977-0.974,2.561-0.974,3.535,0c0.977,0.977,0.977,2.562,0,3.538c-0.975,0.974-2.559,0.974-3.535,0
	C29.192,36.061,29.192,34.476,30.169,33.5z"/>
<circle cx="31.936" cy="64.727" r="2.5"/>
</svg>
