<?xml version="1.0" encoding="UTF-8"?>
<svg id="Layer_2" xmlns="http://www.w3.org/2000/svg" viewBox="0 0 35.94 32.47">
  <defs>
    <style>
      .cls-1 {
        fill: #231f20;
      }
    </style>
  </defs>
  <g id="Layer_1-2" data-name="Layer_1">
    <path class="cls-1" d="M31.71,0H4.24C1.9,0,0,1.9,0,4.24v16.47c0,2.34,1.9,4.24,4.24,4.24h5.19l.58,2.78s0,0,0,0l.87,4.15c.07.35.39.6.73.6.05,0,.1,0,.15-.02.41-.08.67-.48.58-.89l-.81-3.85.89-1.35,1.87,2.85-1.37,2.09c-.23.35-.13.81.22,1.04.13.08.27.12.41.12.24,0,.48-.12.63-.34l1.01-1.54,1.01,1.54c.14.22.38.34.63.34.14,0,.28-.04.41-.12.35-.23.44-.69.22-1.04l-1.37-2.09,1.87-2.85,1.87,2.85-1.37,2.09c-.23.35-.13.81.22,1.04.13.08.27.12.41.12.24,0,.48-.12.63-.34l1.01-1.54,1.01,1.54c.14.22.38.34.63.34.14,0,.28-.04.41-.12.35-.23.44-.69.22-1.04l-1.37-2.09,1.87-2.85.89,1.35-.81,3.85c-.08.41.17.8.58.89.05.01.1.02.15.02.35,0,.66-.24.73-.6l.87-4.15s0,0,0,0l.58-2.78h5.19c2.34,0,4.24-1.9,4.24-4.24V4.24c0-2.34-1.9-4.24-4.24-4.24ZM24.63,16.1h-13.31v-7.63h13.31v7.63ZM28.1,17.6c.46,0,.84.38.84.84s-.38.84-.84.84H7.84c-.46,0-.84-.38-.84-.84s.38-.84.84-.84h20.26ZM14.3,20.78h0s-1.87,2.85-1.87,2.85l-1.88-2.85h3.75ZM16.1,20.78h3.75s-1.87,2.85-1.87,2.85l-1.87-2.85h0ZM21.64,20.78h3.75l-1.88,2.85-1.87-2.85h0ZM11.11,25.65l-.4-1.9.82,1.25-.42.65ZM15.2,27.86l-1.87-2.85,1.87-2.85,1.87,2.85-1.87,2.85ZM20.74,27.86l-1.87-2.85,1.87-2.85,1.87,2.85-1.87,2.85ZM24.41,25l.82-1.25-.4,1.9-.42-.65ZM34.44,20.71c0,1.51-1.23,2.74-2.74,2.74h-4.88l.56-2.66h.71c1.29,0,2.34-1.05,2.34-2.34s-1.05-2.34-2.34-2.34h-1.97V7.72c0-.41-.34-.75-.75-.75h-14.81c-.41,0-.75.34-.75.75v8.38h-1.97c-1.29,0-2.34,1.05-2.34,2.34s1.05,2.34,2.34,2.34h.71l.56,2.66h-4.88c-1.51,0-2.74-1.23-2.74-2.74V4.24c0-1.51,1.23-2.74,2.74-2.74h27.47c1.51,0,2.74,1.23,2.74,2.74v16.47Z"/>
  </g>
</svg>