<?xml version="1.0" encoding="UTF-8"?>
<svg id="Layer_2" xmlns="http://www.w3.org/2000/svg" viewBox="0 0 65.04 61.2">
  <defs>
    <style>
      .cls-1 {
        stroke-width: 2.63px;
      }

      .cls-1, .cls-2 {
        fill: none;
        stroke: #484751;
        stroke-linecap: square;
        stroke-miterlimit: 10;
      }

      .cls-2 {
        stroke-width: 2.63px;
      }
    </style>
  </defs>
  <g id="Icons">
    <g id="_x36_">
      <g>
        <line class="cls-1" x1="11.23" y1="33.39" x2="14.8" y2="36.96"/>
        <line class="cls-1" x1="14.8" y1="33.39" x2="11.23" y2="36.96"/>
      </g>
      <g>
        <line class="cls-1" x1="24.02" y1="33.39" x2="27.59" y2="36.96"/>
        <line class="cls-1" x1="27.59" y1="33.39" x2="24.02" y2="36.96"/>
      </g>
      <g>
        <line class="cls-1" x1="36.81" y1="33.39" x2="40.38" y2="36.96"/>
        <line class="cls-1" x1="40.38" y1="33.39" x2="36.81" y2="36.96"/>
      </g>
      <polyline class="cls-2" points="59.05 6.89 63.72 6.89 63.72 59.89 1.32 59.89 1.32 6.89 9.16 6.89"/>
      <rect class="cls-2" x="11.32" y="1.32" width="8.02" height="11.07"/>
      <rect class="cls-2" x="45.7" y="1.32" width="8.02" height="11.07"/>
      <line class="cls-2" x1="1.32" y1="19.51" x2="57.64" y2="19.51"/>
      <line class="cls-2" x1="10.68" y1="27.14" x2="15.34" y2="27.14"/>
      <line class="cls-2" x1="23.47" y1="27.14" x2="28.14" y2="27.14"/>
      <line class="cls-2" x1="36.26" y1="27.14" x2="40.93" y2="27.14"/>
      <line class="cls-2" x1="49.05" y1="27.14" x2="53.72" y2="27.14"/>
      <line class="cls-2" x1="49.05" y1="35.55" x2="53.72" y2="35.55"/>
      <line class="cls-2" x1="10.68" y1="43.97" x2="15.34" y2="43.97"/>
      <line class="cls-2" x1="23.47" y1="43.97" x2="28.14" y2="43.97"/>
      <line class="cls-2" x1="36.26" y1="43.97" x2="40.93" y2="43.97"/>
      <line class="cls-2" x1="49.05" y1="43.97" x2="53.72" y2="43.97"/>
      <line class="cls-2" x1="10.68" y1="52.39" x2="15.34" y2="52.39"/>
      <line class="cls-2" x1="23.47" y1="52.39" x2="28.14" y2="52.39"/>
      <line class="cls-2" x1="36.26" y1="52.39" x2="40.93" y2="52.39"/>
      <line class="cls-2" x1="49.05" y1="52.39" x2="53.72" y2="52.39"/>
      <line class="cls-2" x1="24.66" y1="6.89" x2="45.7" y2="6.89"/>
    </g>
  </g>
</svg>