<?xml version="1.0" encoding="UTF-8"?>
<svg id="Layer_2" xmlns="http://www.w3.org/2000/svg" viewBox="0 0 64.79 64.79">
  <defs>
    <style>
      .cls-1 {
        fill: none;
        stroke: #484751;
        stroke-linecap: square;
        stroke-miterlimit: 10;
        stroke-width: 2.63px;
      }
    </style>
  </defs>
  <g id="Icons">
    <g id="_x31_">
      <path class="cls-1" d="M32.39,63.47c-17.16,0-31.08-13.91-31.08-31.08S15.23,1.32,32.39,1.32s31.08,13.91,31.08,31.08"/>
      <line class="cls-1" x1="32.39" y1="1.32" x2="32.39" y2="6.14"/>
      <line class="cls-1" x1="32.39" y1="58.64" x2="32.39" y2="63.47"/>
      <line class="cls-1" x1="10.42" y1="10.42" x2="13.83" y2="13.83"/>
      <line class="cls-1" x1="1.32" y1="32.39" x2="6.14" y2="32.39"/>
      <line class="cls-1" x1="58.64" y1="32.39" x2="63.47" y2="32.39"/>
      <line class="cls-1" x1="10.42" y1="54.37" x2="13.83" y2="50.95"/>
      <line class="cls-1" x1="50.95" y1="13.83" x2="54.37" y2="10.42"/>
      <line class="cls-1" x1="45.81" y1="18.98" x2="35.31" y2="29.48"/>
      <line class="cls-1" x1="29.62" y1="29.34" x2="24.25" y2="24.07"/>
      <path class="cls-1" d="M36.52,32.39c0,2.28-1.85,4.13-4.13,4.13s-4.13-1.85-4.13-4.13,1.85-4.13,4.13-4.13,4.13,1.85,4.13,4.13Z"/>
      <polyline class="cls-1" points="39.25 43.43 39.25 40.81 48.73 40.81 48.73 44.37 39.62 55.7 39.62 60.14 48.73 60.14"/>
      <polyline class="cls-1" points="53.24 40.81 53.24 50.48 61.06 50.48"/>
      <line class="cls-1" x1="61.83" y1="40.81" x2="61.83" y2="60.14"/>
    </g>
  </g>
</svg>