<?xml version="1.0" encoding="UTF-8"?>
<svg id="Layer_2" xmlns="http://www.w3.org/2000/svg" viewBox="0 0 28.95 25.58">
  <defs>
    <style>
      .cls-1 {
        fill: #231f20;
      }
    </style>
  </defs>
  <g id="Layer_1-2" data-name="Layer_1">
    <path class="cls-1" d="M25.43,25.58h-7.46c-.86,0-1.67-.33-2.3-.92L4.31,13.89c-1.26-1.2-1.56-3.1-.73-4.63l1.03-1.88C6.1,3.58,7.86,1.22,9.87.34c1.39-.6,2.38-.24,2.49-.2.35.14.54.52.45.88,0,.03-.84,3.49,1.47,5.13,2.34,1.67,5.42-.72,5.46-.75.25-.2.61-.22.88-.04.27.18.39.51.31.82-1.27,4.6,2.48,8.56,5.49,11.75.23.25.46.49.69.73.09.06.16.14.22.23.26.29.52.56.76.84.92,1.05,1.14,2.5.56,3.77-.57,1.27-1.8,2.05-3.19,2.05ZM5.46,8.95l-.56,1.03c-.51.93-.33,2.09.44,2.82l11.37,10.77c.34.33.79.5,1.26.5h7.46c.81,0,1.49-.44,1.83-1.17.2-.44.24-.9.13-1.33-.78,1.01-2.46.98-2.66.97-1.09,0-1.54,0-2.07-.02l-1.72-.02c-.91,0-1.78-.35-2.43-.97-2.18-2.06-10.44-9.96-13.04-12.59ZM6.17,7.53c1.8,1.86,10.54,10.25,13.37,12.92.38.36.88.56,1.41.56l1.73.02c.52,0,.97.01,2.08.02.51.02,1.28-.12,1.46-.42.09-.15.04-.46-.15-.85-.25-.26-.5-.53-.76-.81-.77-.81-1.58-1.67-2.35-2.58l-4.31.71c-.41.07-.79-.21-.86-.62-.07-.41.21-.79.62-.86l3.48-.58c-.23-.31-.46-.62-.67-.95l-4.47.73c-.41.07-.79-.21-.86-.62-.07-.41.21-.79.62-.86l3.89-.64c-.2-.38-.38-.76-.54-1.15l-4.71.76c-.41.07-.79-.21-.86-.62-.07-.41.21-.79.62-.86l4.49-.72c-.2-.84-.28-1.72-.22-2.63-1.45.71-3.72,1.34-5.77-.12-2.33-1.66-2.36-4.46-2.2-5.86-.98.13-3.02,1.04-5.04,6.01ZM8.42,25.58H.75c-.41,0-.75-.34-.75-.75s.34-.75.75-.75h7.67c.41,0,.75.34.75.75s-.34.75-.75.75ZM3.94,21.44H.75c-.41,0-.75-.34-.75-.75s.34-.75.75-.75h3.19c.41,0,.75.34.75.75s-.34.75-.75.75Z"/>
  </g>
</svg>