<?xml version="1.0" encoding="UTF-8"?>
<svg id="Layer_2" xmlns="http://www.w3.org/2000/svg" viewBox="0 0 28.94 22.3">
  <defs>
    <style>
      .cls-1 {
        fill: #231f20;
      }
    </style>
  </defs>
  <g id="Layer_1-2" data-name="Layer_1">
    <path class="cls-1" d="M7.59,22.3c-4.18,0-7.59-3.4-7.59-7.59s3.4-7.59,7.59-7.59h.28c.41,0,.75.34.75.75v.82c0,.57.46,1.04,1.04,1.04s1.04-.46,1.04-1.04v-.82c0-.41.34-.75.75-.75h16.75c.41,0,.75.34.75.75v4.08c0,.32-.2.6-.5.71l-3.35,1.2s-.03,0-.04.01l-3.08,1.11s-.02,0-.02,0l-7.38,2.65c-1.18,2.8-3.94,4.65-6.99,4.65ZM7.12,8.65c-3.14.24-5.62,2.87-5.62,6.07,0,3.36,2.73,6.09,6.09,6.09,2.54,0,4.84-1.61,5.71-4,.08-.21.24-.37.45-.45l7.22-2.59v-5.13h-8.78v.07c0,1.4-1.14,2.54-2.54,2.54s-2.54-1.14-2.54-2.54v-.06ZM22.47,8.63v4.59l1.61-.58v-4.01h-1.61ZM25.58,8.63v3.47l1.87-.67v-2.8h-1.87ZM7.59,17.27c-1.41,0-2.55-1.15-2.55-2.55s1.15-2.55,2.55-2.55,2.55,1.14,2.55,2.55-1.15,2.55-2.55,2.55ZM7.59,13.66c-.58,0-1.05.47-1.05,1.05s.47,1.05,1.05,1.05,1.05-.47,1.05-1.05-.47-1.05-1.05-1.05ZM12.14,5.16c-.19,0-.38-.07-.53-.22-.29-.29-.29-.77,0-1.06l1.91-1.91c.29-.29.77-.29,1.06,0s.29.77,0,1.06l-1.91,1.91c-.15.15-.34.22-.53.22ZM7.16,5.16c-.19,0-.38-.07-.53-.22l-1.91-1.91c-.29-.29-.29-.77,0-1.06s.77-.29,1.06,0l1.91,1.91c.29.29.29.77,0,1.06-.15.15-.34.22-.53.22ZM9.65,4.2c-.41,0-.75-.34-.75-.75V.75c0-.41.34-.75.75-.75s.75.34.75.75v2.7c0,.41-.34.75-.75.75Z"/>
  </g>
</svg>