<?xml version="1.0" encoding="UTF-8"?>
<svg id="Layer_2" xmlns="http://www.w3.org/2000/svg" viewBox="0 0 25.17 25.16">
  <defs>
    <style>
      .cls-1 {
        fill: #231f20;
      }
    </style>
  </defs>
  <g id="Layer_1-2" data-name="Layer_1">
    <path class="cls-1" d="M12.58,25.16c-1.56,0-3.08-.28-4.53-.84,0,0,0,0,0,0-2.03-.78-3.83-2.09-5.22-3.78-1.83-2.24-2.84-5.06-2.84-7.96,0-.4.02-.79.06-1.18,0,0,0,0,0,0,.2-2.15.96-4.22,2.2-6,0,0,0,0,0,0C3.88,3.06,6.27,1.33,8.98.52c0,0,0,0,0,0,2.34-.7,4.88-.7,7.22,0,0,0,0,0,0,0,2.67.8,5.03,2.49,6.65,4.77,0,0,0,0,0,0,1.36,1.92,2.16,4.18,2.3,6.54,0,0,0,0,0,0h0c.01.25.02.49.02.75,0,2.87-.94,5.58-2.73,7.82,0,0,0,0,0,0-1.32,1.65-3.04,2.96-4.98,3.78,0,0,0,0,0,0-1.54.65-3.18.98-4.87.98ZM10.28,23.42s0,0,.01,0c0,0,0,0-.01,0ZM4.11,19.73c1.15,1.36,2.61,2.42,4.24,3.1.19-.08.4-.19.59-.3-.83-.85-1.6-2.01-1.94-2.85-.61-.06-1.65-.24-2.93-.81-.02.26-.02.55.04.86ZM16.58,22.37l.6.3c1.52-.7,2.88-1.74,3.95-3.04.01-.12.02-.23.02-.35,0-.14,0-.27-.02-.4-.83.33-1.98.66-2.78.78-.31.83-1.05,1.9-1.77,2.71ZM10.5,21.92c1.06.38,2.56.37,4.46-.03.84-.75,1.64-1.98,1.93-2.6-.46-.44-1.12-1.38-2.01-3.35-1.89.21-3.4.21-4.57,0-.54.59-1.76,2.46-1.98,3.05.15.49,1.1,2.13,2.16,2.95ZM16.18,15.15c.63,1.41,1.38,2.74,1.73,3.06.7-.04,2.77-.66,3.26-.99,0,0,0,0,.01,0,.37-.4,1.72-3.05,1.48-4.22-.22-1.06-1.41-2.63-1.93-3.19-.47.12-1.53.43-3.16.96-.26,1.2-.72,3.01-1.4,4.39ZM4.01,17.17c1.36.71,2.46.93,3.05,1,.49-1.06,1.59-2.62,2.13-3.24-.45-.99-.93-2.63-1.24-3.77-.04-.15-.08-.3-.12-.43-.12-.05-.25-.09-.38-.14-.35-.13-.67-.24-.96-.33-.18-.06-.36-.12-.53-.17-.56-.17-.96-.26-1.21-.29-.6.51-1.68,2.25-1.94,3.06,0,.07,0,.13,0,.21,0,1.3.49,3.24,1.21,4.1ZM10.61,14.45c1.06.19,2.49.18,4.25-.03.61-1.26,1.03-2.97,1.25-3.98-.69-.58-2.29-1.82-3.41-2.42-.52.25-1.34.81-2.15,1.42-.44.34-.88.69-1.25,1,.44,1.64.97,3.32,1.31,4.01ZM1.57,11.34c.04.07.11.14.18.22.46-.93,1.21-2.12,1.93-2.79-.17-.68-.25-1.39-.25-2.08,0-.11,0-.23,0-.34,0,0,0,0,0,0-1.01,1.49-1.65,3.21-1.85,5ZM21.8,8.74c.55.56,1.28,1.56,1.79,2.54-.19-1.65-.76-3.24-1.65-4.64.05.85-.05,1.63-.14,2.11ZM13.49,6.75c1.24.69,2.87,1.94,3.62,2.58,1.74-.57,2.69-.85,3.23-.98.13-.75.22-2.02-.2-2.91h0c-.22-.44-1.38-1.56-3.56-2.73-1.41.07-2.55.6-3.09.89v3.15ZM8.13,9.25c.06.02.12.05.19.07.79-.66,2.48-2.02,3.68-2.61v-3.18c-.44-.23-1.57-.65-3.26-.83-2.19.4-3.16,1.92-3.69,2.74h0c-.06.32-.11.74-.11,1.25s.05,1.05.2,1.66c.13.02.26.05.41.08.87.2,1.92.57,2.6.82ZM11.05,1.6c.69.18,1.3.41,1.74.66.34-.19.85-.43,1.48-.64-1.06-.16-2.16-.17-3.23-.02Z"/>
  </g>
</svg>