<?xml version="1.0" encoding="UTF-8"?>
<svg id="Layer_2" xmlns="http://www.w3.org/2000/svg" viewBox="0 0 74.3 60.67">
  <defs>
    <style>
      .cls-1 {
        fill: none;
        stroke: #484751;
        stroke-linecap: square;
        stroke-miterlimit: 10;
        stroke-width: 2.63px;
      }
    </style>
  </defs>
  <g id="Icons">
    <g id="_x33_">
      <path class="cls-1" d="M12.56,27.15v-1.25C12.56,12.32,23.57,1.32,37.15,1.32h0c13.58,0,24.59,11.01,24.59,24.59v25.97h0c0,4.13-3.35,7.48-7.48,7.48h-13.93c-.8,0-1.45-.65-1.45-1.45v-2.71c0-.8.65-1.45,1.45-1.45h5.79c.8,0,1.45.65,1.45,1.45v3.3"/>
      <path class="cls-1" d="M7.24,33h5.32v18.88h-5.32c-3.27,0-5.93-2.66-5.93-5.93v-7.02c0-3.27,2.66-5.93,5.93-5.93Z"/>
      <path class="cls-1" d="M67.87,51.87h0c2.82,0,5.11-2.29,5.11-5.11v-8.65c0-2.82-2.29-5.11-5.11-5.11h-6.13"/>
      <path class="cls-1" d="M7.6,33h-1.17c-2.82,0-5.11,2.29-5.11,5.11v8.65c0,2.82,2.29,5.11,5.11,5.11h6.13"/>
    </g>
  </g>
</svg>