<?xml version="1.0" encoding="UTF-8"?>
<svg id="Layer_2" xmlns="http://www.w3.org/2000/svg" viewBox="0 0 29.13 28.39">
  <defs>
    <style>
      .cls-1 {
        fill: #231f20;
      }
    </style>
  </defs>
  <g id="Layer_1-2" data-name="Layer_1">
    <path class="cls-1" d="M23.65,28.39H5.48c-.41,0-.75-.34-.75-.75v-12.14H.75c-.41,0-.75-.34-.75-.75v-6.85c0-1.49.83-2.84,2.16-3.52L10.69.08c.29-.15.64-.09.87.14l3.01,3L17.58.22c.23-.23.58-.28.87-.14l8.52,4.31c1.33.67,2.16,2.02,2.16,3.52v6.85c0,.41-.34.75-.75.75h-3.98v12.14c0,.41-.34.75-.75.75ZM6.23,26.89h16.67v-1.71H6.23v1.71ZM6.23,23.68h16.67v-13.94c0-.41.34-.75.75-.75s.75.34.75.75v1.73h3.23v-3.57c0-.93-.51-1.76-1.34-2.18L18.25,1.66l-3.16,3.14c-.29.29-.77.29-1.06,0l-3.16-3.14L2.84,5.73c-.83.42-1.34,1.25-1.34,2.18v3.57h3.23v-1.73c0-.41.34-.75.75-.75s.75.34.75.75v13.94ZM24.4,14h3.23v-1.03h-3.23v1.03ZM1.5,14h3.23v-1.03H1.5v1.03ZM14.57,18.9c-1.69,0-3.06-1.37-3.06-3.06,0-.99.47-1.87,1.2-2.43-.34-.42-.55-.95-.55-1.53,0-1.32,1.08-2.4,2.4-2.4s2.4,1.08,2.4,2.4c0,.58-.21,1.11-.55,1.53.73.56,1.2,1.44,1.2,2.43,0,1.69-1.37,3.06-3.06,3.06ZM14.57,14.29c-.86,0-1.56.7-1.56,1.56s.7,1.56,1.56,1.56,1.56-.7,1.56-1.56-.7-1.56-1.56-1.56ZM14.57,10.99c-.5,0-.9.4-.9.9s.4.9.9.9.9-.4.9-.9-.4-.9-.9-.9Z"/>
  </g>
</svg>