<?xml version="1.0" encoding="UTF-8"?>
<svg id="Layer_2" xmlns="http://www.w3.org/2000/svg" viewBox="0 0 23.09 33.51">
  <defs>
    <style>
      .cls-1 {
        fill: #231f20;
      }
    </style>
  </defs>
  <g id="Layer_1-2" data-name="Layer_1">
    <path class="cls-1" d="M22.34,33.51c-.41,0-.75-.34-.75-.75v-2.21c-2.51-.56-4.06-3.85-4.61-5.26-9.4,1.8-13.48-3.18-14.3-4.34l-1.06-.41c-1.05-.41-1.71-1.48-1.6-2.6L1.44,3.18c.03-.29.22-.54.5-.64L9.05.04c.26-.09.54-.03.75.15l3.62,3.22c.3.27.34.73.07,1.05l-2.94,3.46c-.25.29-.68.35-1,.13-.1-.07-.8-.56-1.37-1.22-.4.18-.82.33-1.17.44l2.38,6.8c.99-.75,2.22-1.18,3.53-1.18,1.39,0,2.7.49,3.72,1.34,1.01-1.83,2.94-2.99,5.1-2.99.41,0,.75.34.75.75s-.34.75-.75.75c-1.78,0-3.34,1.06-4.01,2.68.3.43.54.91.71,1.42.13.39-.08.82-.47.95-.39.13-.82-.08-.95-.47-.16-.46-.39-.88-.68-1.26-.03-.03-.06-.07-.09-.11-.81-.97-2.02-1.57-3.34-1.57s-2.42.54-3.22,1.43c-.04.06-.09.12-.14.17-.34.42-.6.9-.77,1.44-.12.4-.55.62-.94.49-.4-.12-.62-.54-.49-.94.2-.63.49-1.2.86-1.71l-2.89-8.25c-.07-.2-.05-.42.05-.61.1-.19.28-.32.49-.37.38-.09,1.5-.4,2.12-.8.17-.11.38-.15.58-.1.2.05.37.17.47.34.19.32.53.66.83.92l1.99-2.35-2.74-2.44L2.89,3.8l-1.38,14.29c-.04.46.22.89.65,1.06l1.29.5c.16.06.29.17.37.31.16.25,3.72,5.86,13.44,3.75.03,0,.05-.01.08-.02.66-.15,1.35-.33,2.08-.55.39-.12.79.09.93.46.02.06.57,1.51,1.99,1.45.41-.03.76.32.77.73,0,.41-.32.76-.73.77-1.73.03-2.66-1.06-3.11-1.8-.27.08-.53.15-.79.21.67,1.62,2.1,4.17,3.88,4.17.41,0,.75.34.75.75v2.88c0,.41-.34.75-.75.75ZM13.51,22.65c-2.78,0-5.3-.91-6.15-1.51-.34-.24-.42-.71-.18-1.05.24-.34.71-.42,1.05-.18.87.61,5.05,1.99,8.42.7.39-.15.82.05.97.43.15.39-.05.82-.43.97-1.19.46-2.46.63-3.67.63Z"/>
  </g>
</svg>