<?xml version="1.0" encoding="UTF-8"?>
<svg id="Layer_2" xmlns="http://www.w3.org/2000/svg" viewBox="0 0 57.17 57.05">
  <defs>
    <style>
      .cls-1 {
        fill: none;
        stroke: #484751;
        stroke-linecap: square;
        stroke-miterlimit: 10;
        stroke-width: 2.63px;
      }
    </style>
  </defs>
  <g id="Icons">
    <g id="_x31_2">
      <g id="_x38_">
        <path class="cls-1" d="M16.86,21.88c-1.23-1.96-1-2.51-1-2.51l3.66-5.31c.98-1.32.84-3.16-.32-4.32l-7.58-7.53c-1.1-1.1-2.85-1.2-4.08-.25l-3.29,2.55c-.28.22-.54.47-.75.76-6.49,9.06,2.62,23.33,13.85,34.5,10.92,10.86,25.71,20.54,34.64,13.62.25-.2.47-.43.67-.69l2.57-3.36c.95-1.24.83-2.98-.28-4.08l-7.57-7.53c-1.17-1.16-3.01-1.29-4.32-.3l-5.29,3.69s-2.11.77-12.38-9.44c-3.67-3.65-5.93-6.25-7.32-8.1-.5-.66-.89-1.23-1.19-1.71"/>
      </g>
      <path class="cls-1" d="M45.4,26.59c0-2.2-.48-4.43-1.5-6.54-2.56-5.29-7.83-8.4-13.33-8.48"/>
      <path class="cls-1" d="M54.05,26.59c0-3.46-.76-6.98-2.37-10.31-4.05-8.38-12.4-13.28-21.11-13.36"/>
      <path class="cls-1" d="M51.68,16.28c-2.95-6.84-12.18-12.98-21.11-13.36"/>
    </g>
  </g>
</svg>