<?xml version="1.0" encoding="UTF-8"?>
<svg id="Layer_2" xmlns="http://www.w3.org/2000/svg" viewBox="0 0 41.38 67.58">
  <defs>
    <style>
      .cls-1 {
        fill: none;
        stroke: #484751;
        stroke-linecap: square;
        stroke-miterlimit: 10;
        stroke-width: 2.63px;
      }
    </style>
  </defs>
  <g id="Icons">
    <g id="_x39_">
      <path class="cls-1" d="M13.43,23.39c-.39-2.28.02-2.7.02-2.7l5.39-3.53c1.41-.85,1.97-2.61,1.33-4.12l-4.16-9.84c-.61-1.43-2.18-2.19-3.68-1.78l-4.01,1.11c-.34.1-.68.23-.99.42-9.44,5.93-6.41,22.59-.24,37.17,6,14.19,16.02,28.75,26.9,25.72.31-.09.6-.22.88-.38l3.65-2.13c1.34-.79,1.9-2.45,1.29-3.88l-4.16-9.83c-.64-1.51-2.29-2.33-3.89-1.91l-6.29,1.41s-2.25-.09-7.89-13.43c-2.01-4.76-3.12-8.03-3.71-10.27-.21-.8-.36-1.48-.45-2.04"/>
    </g>
  </g>
</svg>