<?xml version="1.0" encoding="UTF-8"?>
<svg id="Layer_2" xmlns="http://www.w3.org/2000/svg" viewBox="0 0 60.12 75.03">
  <defs>
    <style>
      .cls-1 {
        fill: none;
        stroke: #484751;
        stroke-linecap: square;
        stroke-miterlimit: 10;
        stroke-width: 2.63px;
      }
    </style>
  </defs>
  <g id="Icons">
    <g id="_x31_6">
      <path class="cls-1" d="M37.56,37.99l-.56-5.09c3.95-3.42,6.6-9.45,6.6-15.36,0-8.96-1.28-16.22-13.53-16.22s-13.53,7.26-13.53,16.22c0,5.92,2.65,11.94,6.6,15.36l-.56,5.09c-.2,1.82-1.49,3.33-3.25,3.82l-12.48,3.46c-3.26.9-5.52,3.87-5.52,7.26v21.19h57.49v-21.19c0-3.38-2.26-6.35-5.52-7.26l-12.48-3.46c-1.76-.49-3.05-2-3.25-3.82Z"/>
      <path class="cls-1" d="M21.94,12.08s3.58,1.4,6.9,1.4c4.41,0,8.89-1.9,8.89-1.9,0,0,2.54,1.94,5.15,1.9"/>
      <path class="cls-1" d="M19.31,42.77l.82.68c5.76,4.77,14.1,4.77,19.86,0l.82-.68"/>
    </g>
  </g>
</svg>