<?xml version="1.0" encoding="UTF-8"?>
<svg id="Layer_2" xmlns="http://www.w3.org/2000/svg" viewBox="0 0 27.89 27.9">
  <defs>
    <style>
      .cls-1 {
        fill: #231f20;
      }
    </style>
  </defs>
  <g id="Layer_1-2" data-name="Layer_1">
    <path class="cls-1" d="M2.53,27.9c-.65,0-1.29-.25-1.79-.74s-.74-1.11-.74-1.79.26-1.31.74-1.79l3.99-3.99h0c.24-.24.49-.48.74-.71,1.6-1.5,3.26-3.04,3.37-7.75,0-.29.01-.58.04-.88.23-2.51,1.41-4.95,3.34-6.87C14.16,1.45,16.6.27,19.1.04c2.56-.23,4.88.55,6.54,2.21,1.11,1.11,1.8,2.5,2.09,4.01.02.06.03.13.04.2.19,1.15.15,2.37-.11,3.58,0,.07-.02.13-.04.19-.32,1.33-.9,2.64-1.76,3.85-.01.02-.03.04-.04.06-.38.53-.81,1.05-1.3,1.53-.48.48-1,.92-1.53,1.3-.02.02-.04.03-.06.04-1.21.85-2.52,1.44-3.84,1.75-.06.02-.13.04-.2.04-.65.14-1.31.22-1.95.23-.03,0-.06,0-.09,0-4.77.09-6.33,1.76-7.83,3.37-.24.25-.47.5-.71.75h0l-3.99,3.99c-.49.49-1.14.74-1.79.74ZM5.27,21.18l-3.46,3.46c-.4.4-.4,1.05,0,1.45.4.4,1.05.4,1.45,0h0l3.46-3.46-1.45-1.45ZM6.34,20.13l1.43,1.43c.05-.06.1-.11.16-.17,1.15-1.23,2.41-2.58,4.92-3.31-.63-.34-1.22-.77-1.74-1.29s-.95-1.1-1.29-1.73c-.73,2.51-2.08,3.77-3.31,4.92-.06.05-.11.1-.17.16ZM17.14,17.44l-.11.11c.07,0,.14,0,.21,0l-.1-.1ZM12.73,16.23c.69.54,1.49.91,2.37,1.12l.98-.98-1.75-1.75-1.6,1.6ZM18.2,16.38l.85.85c.79-.22,1.56-.55,2.29-.98l-1.51-1.51-1.64,1.64ZM20.9,13.68l1.7,1.7c.3-.24.59-.5.86-.77s.54-.57.77-.86l-1.7-1.7-1.64,1.64ZM15.39,13.57l1.75,1.75,1.64-1.64-1.75-1.75-1.64,1.64ZM10.54,12.8c.21.88.59,1.68,1.12,2.37l1.6-1.6-1.75-1.75-.98.98ZM18.09,10.87l1.75,1.75,1.64-1.64-1.75-1.75-1.64,1.64ZM12.58,10.76l1.75,1.75,1.64-1.64-1.75-1.75-1.64,1.64ZM23.59,10.98l1.51,1.51c.43-.74.76-1.51.98-2.29l-.85-.85-1.64,1.64ZM10.37,10.66c0,.07,0,.14,0,.21l.11-.11-.1-.1ZM20.79,8.18l1.75,1.75,1.64-1.64-1.75-1.75-1.64,1.64ZM15.28,8.07l1.75,1.75,1.64-1.64-1.75-1.75-1.64,1.64ZM10.67,8.85l.85.85,1.64-1.64-1.51-1.51c-.43.73-.76,1.5-.98,2.29ZM26.29,8.29l.1.1c0-.07,0-.14,0-.2l-.11.11ZM23.48,5.48l1.75,1.75.98-.98c-.21-.86-.58-1.67-1.12-2.37l-1.6,1.6ZM17.98,5.37l1.75,1.75,1.64-1.64-1.75-1.75-1.64,1.64ZM12.52,5.3l1.7,1.7,1.64-1.64-1.7-1.7c-.3.24-.59.5-.86.77s-.53.56-.77.86ZM20.67,2.67l1.75,1.75,1.6-1.6c-.69-.54-1.49-.91-2.37-1.12l-.98.98ZM15.41,2.8l1.51,1.51,1.64-1.64-.85-.85c-.79.22-1.56.55-2.29.98ZM19.52,1.51l.1.1.11-.11c-.07,0-.14,0-.21,0Z"/>
  </g>
</svg>