<?xml version="1.0" encoding="UTF-8"?>
<svg id="Layer_2" xmlns="http://www.w3.org/2000/svg" viewBox="0 0 28.09 25.75">
  <defs>
    <style>
      .cls-1 {
        fill: #231f20;
      }
    </style>
  </defs>
  <g id="Layer_1-2" data-name="Layer_1">
    <path class="cls-1" d="M27.34,25.75h-4.06c-.41,0-.75-.34-.75-.75s.34-.75.75-.75h1.28v-2.75H3.53v2.75h1.28c.41,0,.75.34.75.75s-.34.75-.75.75H.75c-.41,0-.75-.34-.75-.75s.34-.75.75-.75h1.28V7.34c0-.41.34-.75.75-.75s.75.34.75.75v.79h21.03v-.79c0-.41.34-.75.75-.75s.75.34.75.75v16.92h1.28c.41,0,.75.34.75.75s-.34.75-.75.75ZM20.42,20h4.13v-2.49h-4.13v2.49ZM14.79,20h4.13v-2.49h-4.13v2.49ZM9.16,20h4.13v-2.49h-4.13v2.49ZM3.53,20h4.13v-2.49H3.53v2.49ZM20.42,16.02h4.13v-2.4h-4.13v2.4ZM14.79,16.02h4.13v-2.4h-4.13v2.4ZM9.16,16.02h4.13v-2.4h-4.13v2.4ZM3.53,16.02h4.13v-2.4H3.53v2.4ZM20.42,12.12h4.13v-2.49h-4.13v2.49ZM14.79,12.12h4.13v-2.49h-4.13v2.49ZM9.16,12.12h4.13v-2.49h-4.13v2.49ZM3.53,12.12h4.13v-2.49H3.53v2.49ZM18.2,6.78c-1.87,0-3.39-1.52-3.39-3.39s1.52-3.39,3.39-3.39,3.39,1.52,3.39,3.39-1.52,3.39-3.39,3.39ZM18.2,1.5c-1.04,0-1.89.85-1.89,1.89s.85,1.89,1.89,1.89,1.89-.85,1.89-1.89-.85-1.89-1.89-1.89Z"/>
  </g>
</svg>