<?xml version="1.0" encoding="UTF-8"?>
<svg id="Layer_2" xmlns="http://www.w3.org/2000/svg" viewBox="0 0 25.17 25.17">
  <defs>
    <style>
      .cls-1 {
        fill: #231f20;
      }
    </style>
  </defs>
  <g id="Layer_1-2" data-name="Layer_1">
    <path class="cls-1" d="M12.58,25.17c-4.62,0-8.67-2.51-10.86-6.24-.02-.04-.05-.07-.07-.11-1.05-1.84-1.66-3.97-1.66-6.23C0,5.65,5.64,0,12.58,0h.01c2.64,0,5.1.82,7.12,2.22.04.02.08.05.12.09,3.22,2.28,5.33,6.04,5.33,10.28,0,2.27-.6,4.4-1.66,6.24-.02.04-.04.07-.06.11-1.28,2.18-3.2,3.95-5.5,5.04-.01,0-.02.01-.04.02-1.62.76-3.43,1.19-5.33,1.19ZM3.12,18.35c1.95,3.19,5.46,5.32,9.46,5.32.88,0,1.73-.1,2.55-.3-5.62-1.94-8.45-5.7-9.34-9.11-1.42,1.07-2.39,2.54-2.68,4.08ZM7.14,13.44c.7,3.45,3.75,7.48,10.38,9.07,1.37-.69,2.58-1.65,3.56-2.81-1.86.18-3.89-.31-5.63-1.42-2.04-1.29-3.32-3.16-3.58-5.19-1.4-.57-3.09-.44-4.73.36ZM17.43,17.62c1.63.69,3.4.8,4.87.27.87-1.58,1.36-3.39,1.36-5.31,0-2.93-1.15-5.61-3.01-7.59,1.12,5.84-.72,10.16-3.22,12.63ZM13.37,12.95c.21,1.49,1.16,2.9,2.68,3.92,2.64-2.33,4.6-6.99,2.66-13.52-1.25-.83-2.68-1.42-4.22-1.69,1.09,1.53,1.68,3.53,1.59,5.59-.1,2.41-1.08,4.45-2.71,5.69ZM1.52,11.9c-.01.23-.02.45-.02.68,0,1.34.24,2.62.68,3.81.78-1.7,2.21-3.21,4.05-4.17,2.13-1.12,4.39-1.29,6.28-.5,1.19-.93,1.93-2.46,2.06-4.28-3.34-1.12-8.35-.49-13.04,4.46ZM12.32,1.5c-4.89.11-9.01,3.41-10.36,7.9,4.49-3.9,9.17-4.47,12.56-3.54-.22-1.76-1.01-3.35-2.2-4.36Z"/>
  </g>
</svg>